<mxfile host="app.diagrams.net" modified="2023-05-10T03:55:19.065Z" agent="Mozilla/5.0 (Windows NT 10.0; Win64; x64) AppleWebKit/537.36 (KHTML, like Gecko) Chrome/112.0.0.0 Safari/537.36" etag="AfF8Fw2h7n4Lki3mQptF" version="21.2.9" type="github">
  <diagram name="第 1 页" id="-tU2giaiC4PwmeR-Xja7">
    <mxGraphModel dx="2620" dy="985" grid="1" gridSize="10" guides="1" tooltips="1" connect="1" arrows="1" fold="1" page="1" pageScale="1" pageWidth="827" pageHeight="1169" math="1" shadow="0">
      <root>
        <mxCell id="0" />
        <mxCell id="1" parent="0" />
        <mxCell id="G7wpn1RSfVlJ9Cp6VC8K-64" value="" style="rounded=1;whiteSpace=wrap;html=1;fontFamily=Helvetica;fontSize=12;fillColor=#f5f5f5;fontColor=#333333;strokeColor=#666666;" parent="1" vertex="1">
          <mxGeometry x="-191.5" y="1140" width="1283" height="350" as="geometry" />
        </mxCell>
        <mxCell id="G7wpn1RSfVlJ9Cp6VC8K-35" value="" style="ellipse;fillColor=#dae8fc;strokeColor=#6c8ebf;html=1;opacity=60;" parent="1" vertex="1">
          <mxGeometry x="169" y="1229.62" width="200" height="201.5" as="geometry" />
        </mxCell>
        <mxCell id="G7wpn1RSfVlJ9Cp6VC8K-36" value="" style="ellipse;fillColor=#ffe6cc;opacity=60;strokeColor=#FFB570;html=1;" parent="1" vertex="1">
          <mxGeometry x="259" y="1231.12" width="200" height="200" as="geometry" />
        </mxCell>
        <mxCell id="G7wpn1RSfVlJ9Cp6VC8K-37" value="&lt;font style=&quot;font-size: 18px;&quot;&gt;$$Object(L_1)$$&lt;/font&gt;" style="text;html=1;strokeColor=none;fillColor=none;align=center;verticalAlign=middle;whiteSpace=wrap;rounded=0;" parent="1" vertex="1">
          <mxGeometry x="210" y="1316.12" width="100" height="30" as="geometry" />
        </mxCell>
        <mxCell id="G7wpn1RSfVlJ9Cp6VC8K-38" value="&lt;font style=&quot;font-size: 18px;&quot;&gt;$$Object(L_2)$$&lt;/font&gt;" style="text;html=1;strokeColor=none;fillColor=none;align=center;verticalAlign=middle;whiteSpace=wrap;rounded=0;" parent="1" vertex="1">
          <mxGeometry x="340" y="1315.37" width="100" height="30" as="geometry" />
        </mxCell>
        <mxCell id="G7wpn1RSfVlJ9Cp6VC8K-39" value="&lt;font style=&quot;font-size: 18px;&quot;&gt;$$Object(L_1\cup L_2) &lt;br&gt;= Object(L_1) \cap Object(L_2)$$&lt;/font&gt;" style="text;html=1;strokeColor=none;fillColor=none;align=center;verticalAlign=middle;whiteSpace=wrap;rounded=0;" parent="1" vertex="1">
          <mxGeometry x="189" y="1450" width="590" height="30" as="geometry" />
        </mxCell>
        <mxCell id="G7wpn1RSfVlJ9Cp6VC8K-40" value="&lt;font style=&quot;font-size: 24px;&quot;&gt;$$Owner_2$$&lt;/font&gt;" style="text;html=1;strokeColor=none;fillColor=none;align=center;verticalAlign=middle;whiteSpace=wrap;rounded=0;" parent="1" vertex="1">
          <mxGeometry x="284" y="1188.62" width="70" height="30" as="geometry" />
        </mxCell>
        <mxCell id="G7wpn1RSfVlJ9Cp6VC8K-41" value="" style="ellipse;fillColor=#dae8fc;strokeColor=#6c8ebf;html=1;opacity=60;" parent="1" vertex="1">
          <mxGeometry x="489" y="1229.62" width="200" height="201.5" as="geometry" />
        </mxCell>
        <mxCell id="G7wpn1RSfVlJ9Cp6VC8K-42" value="" style="ellipse;fillColor=#ffe6cc;opacity=60;strokeColor=#FFB570;html=1;" parent="1" vertex="1">
          <mxGeometry x="579" y="1231.12" width="200" height="200" as="geometry" />
        </mxCell>
        <mxCell id="G7wpn1RSfVlJ9Cp6VC8K-46" value="&lt;font style=&quot;font-size: 24px;&quot;&gt;$$Owner_3$$&lt;/font&gt;" style="text;html=1;strokeColor=none;fillColor=none;align=center;verticalAlign=middle;whiteSpace=wrap;rounded=0;" parent="1" vertex="1">
          <mxGeometry x="604" y="1188.62" width="70" height="30" as="geometry" />
        </mxCell>
        <mxCell id="G7wpn1RSfVlJ9Cp6VC8K-53" value="" style="ellipse;fillColor=#dae8fc;strokeColor=#6c8ebf;html=1;opacity=60;" parent="1" vertex="1">
          <mxGeometry x="-91" y="1225.37" width="200" height="201.5" as="geometry" />
        </mxCell>
        <mxCell id="G7wpn1RSfVlJ9Cp6VC8K-54" value="&lt;font style=&quot;font-size: 24px;&quot;&gt;$$Owner_1$$&lt;/font&gt;" style="text;html=1;strokeColor=none;fillColor=none;align=center;verticalAlign=middle;whiteSpace=wrap;rounded=0;" parent="1" vertex="1">
          <mxGeometry x="-21" y="1188.62" width="70" height="30" as="geometry" />
        </mxCell>
        <mxCell id="G7wpn1RSfVlJ9Cp6VC8K-57" value="&lt;font style=&quot;font-size: 24px;&quot;&gt;$$Owner_4$$&lt;/font&gt;" style="text;html=1;strokeColor=none;fillColor=none;align=center;verticalAlign=middle;whiteSpace=wrap;rounded=0;" parent="1" vertex="1">
          <mxGeometry x="909" y="1192.87" width="70" height="30" as="geometry" />
        </mxCell>
        <mxCell id="G7wpn1RSfVlJ9Cp6VC8K-59" value="" style="ellipse;fillColor=#ffe6cc;opacity=60;strokeColor=#FFB570;html=1;" parent="1" vertex="1">
          <mxGeometry x="839" y="1231.12" width="200" height="200" as="geometry" />
        </mxCell>
        <mxCell id="G7wpn1RSfVlJ9Cp6VC8K-58" value="&lt;font style=&quot;font-size: 18px;&quot;&gt;$$Object(L_2)$$&lt;/font&gt;" style="text;html=1;strokeColor=none;fillColor=none;align=center;verticalAlign=middle;whiteSpace=wrap;rounded=0;" parent="1" vertex="1">
          <mxGeometry x="894" y="1315.37" width="100" height="30" as="geometry" />
        </mxCell>
        <mxCell id="G7wpn1RSfVlJ9Cp6VC8K-61" value="&lt;font style=&quot;font-size: 18px;&quot;&gt;$$Object(L_1\cup L_2)= Object(L_1)&lt;br&gt;$$&lt;/font&gt;" style="text;html=1;strokeColor=none;fillColor=none;align=center;verticalAlign=middle;whiteSpace=wrap;rounded=0;" parent="1" vertex="1">
          <mxGeometry x="-36" y="1450" width="100" height="30" as="geometry" />
        </mxCell>
        <mxCell id="G7wpn1RSfVlJ9Cp6VC8K-65" value="" style="rounded=1;whiteSpace=wrap;html=1;fontFamily=Helvetica;fontSize=12;fillColor=#f5f5f5;fontColor=#333333;strokeColor=#666666;" parent="1" vertex="1">
          <mxGeometry x="-415" y="755.75" width="760" height="290" as="geometry" />
        </mxCell>
        <mxCell id="G7wpn1RSfVlJ9Cp6VC8K-66" value="" style="ellipse;fillColor=#dae8fc;strokeColor=#6c8ebf;html=1;opacity=60;" parent="1" vertex="1">
          <mxGeometry x="-380" y="815.75" width="200" height="201.5" as="geometry" />
        </mxCell>
        <mxCell id="G7wpn1RSfVlJ9Cp6VC8K-67" value="&lt;font style=&quot;font-size: 24px;&quot;&gt;$$Owner_1$$&lt;/font&gt;" style="text;html=1;strokeColor=none;fillColor=none;align=center;verticalAlign=middle;whiteSpace=wrap;rounded=0;" parent="1" vertex="1">
          <mxGeometry x="-310" y="785.75" width="70" height="30" as="geometry" />
        </mxCell>
        <mxCell id="G7wpn1RSfVlJ9Cp6VC8K-68" value="" style="ellipse;fillColor=#dae8fc;strokeColor=#6c8ebf;html=1;opacity=60;" parent="1" vertex="1">
          <mxGeometry x="-140" y="815.75" width="200" height="201.5" as="geometry" />
        </mxCell>
        <mxCell id="G7wpn1RSfVlJ9Cp6VC8K-69" value="&lt;font style=&quot;font-size: 24px;&quot;&gt;$$Owner_2$$&lt;/font&gt;" style="text;html=1;strokeColor=none;fillColor=none;align=center;verticalAlign=middle;whiteSpace=wrap;rounded=0;" parent="1" vertex="1">
          <mxGeometry x="-70" y="785.75" width="70" height="30" as="geometry" />
        </mxCell>
        <mxCell id="G7wpn1RSfVlJ9Cp6VC8K-70" value="" style="ellipse;fillColor=#dae8fc;strokeColor=#6c8ebf;html=1;opacity=60;" parent="1" vertex="1">
          <mxGeometry x="100" y="815.75" width="200" height="201.5" as="geometry" />
        </mxCell>
        <mxCell id="G7wpn1RSfVlJ9Cp6VC8K-71" value="&lt;font style=&quot;font-size: 24px;&quot;&gt;$$Owner_3$$&lt;/font&gt;" style="text;html=1;strokeColor=none;fillColor=none;align=center;verticalAlign=middle;whiteSpace=wrap;rounded=0;" parent="1" vertex="1">
          <mxGeometry x="170" y="785.75" width="70" height="30" as="geometry" />
        </mxCell>
        <mxCell id="G7wpn1RSfVlJ9Cp6VC8K-72" value="" style="rounded=1;whiteSpace=wrap;html=1;fontFamily=Helvetica;fontSize=12;fillColor=#f5f5f5;fontColor=#333333;strokeColor=#666666;" parent="1" vertex="1">
          <mxGeometry x="570" y="755.75" width="760" height="290" as="geometry" />
        </mxCell>
        <mxCell id="G7wpn1RSfVlJ9Cp6VC8K-74" value="&lt;font style=&quot;font-size: 24px;&quot;&gt;$$Owner_2$$&lt;/font&gt;" style="text;html=1;strokeColor=none;fillColor=none;align=center;verticalAlign=middle;whiteSpace=wrap;rounded=0;" parent="1" vertex="1">
          <mxGeometry x="675" y="785.75" width="70" height="30" as="geometry" />
        </mxCell>
        <mxCell id="G7wpn1RSfVlJ9Cp6VC8K-76" value="&lt;font style=&quot;font-size: 24px;&quot;&gt;$$Owner_3$$&lt;/font&gt;" style="text;html=1;strokeColor=none;fillColor=none;align=center;verticalAlign=middle;whiteSpace=wrap;rounded=0;" parent="1" vertex="1">
          <mxGeometry x="915" y="785.75" width="70" height="30" as="geometry" />
        </mxCell>
        <mxCell id="G7wpn1RSfVlJ9Cp6VC8K-78" value="&lt;font style=&quot;font-size: 24px;&quot;&gt;$$Owner_4$$&lt;/font&gt;" style="text;html=1;strokeColor=none;fillColor=none;align=center;verticalAlign=middle;whiteSpace=wrap;rounded=0;" parent="1" vertex="1">
          <mxGeometry x="1155" y="785.75" width="70" height="30" as="geometry" />
        </mxCell>
        <mxCell id="G7wpn1RSfVlJ9Cp6VC8K-80" value="" style="ellipse;fillColor=#ffe6cc;opacity=60;strokeColor=#FFB570;html=1;" parent="1" vertex="1">
          <mxGeometry x="610" y="815.7499999999999" width="200" height="200" as="geometry" />
        </mxCell>
        <mxCell id="G7wpn1RSfVlJ9Cp6VC8K-81" value="" style="ellipse;fillColor=#ffe6cc;opacity=60;strokeColor=#FFB570;html=1;" parent="1" vertex="1">
          <mxGeometry x="850" y="815.7499999999999" width="200" height="200" as="geometry" />
        </mxCell>
        <mxCell id="G7wpn1RSfVlJ9Cp6VC8K-82" value="" style="ellipse;fillColor=#ffe6cc;opacity=60;strokeColor=#FFB570;html=1;" parent="1" vertex="1">
          <mxGeometry x="1091.5" y="815.7499999999999" width="200" height="200" as="geometry" />
        </mxCell>
        <mxCell id="G7wpn1RSfVlJ9Cp6VC8K-83" value="&lt;font style=&quot;font-size: 24px;&quot;&gt;$$Object(L_1)$$&lt;/font&gt;" style="text;html=1;strokeColor=none;fillColor=none;align=center;verticalAlign=middle;whiteSpace=wrap;rounded=0;" parent="1" vertex="1">
          <mxGeometry x="-325" y="899.9999999999999" width="100" height="30" as="geometry" />
        </mxCell>
        <mxCell id="G7wpn1RSfVlJ9Cp6VC8K-84" value="&lt;font style=&quot;font-size: 24px;&quot;&gt;$$Object(L_1)$$&lt;/font&gt;" style="text;html=1;strokeColor=none;fillColor=none;align=center;verticalAlign=middle;whiteSpace=wrap;rounded=0;" parent="1" vertex="1">
          <mxGeometry x="-85" y="899.9999999999999" width="100" height="30" as="geometry" />
        </mxCell>
        <mxCell id="G7wpn1RSfVlJ9Cp6VC8K-85" value="&lt;font style=&quot;font-size: 24px;&quot;&gt;$$Object(L_1)$$&lt;/font&gt;" style="text;html=1;strokeColor=none;fillColor=none;align=center;verticalAlign=middle;whiteSpace=wrap;rounded=0;" parent="1" vertex="1">
          <mxGeometry x="155" y="899.9999999999999" width="100" height="30" as="geometry" />
        </mxCell>
        <mxCell id="G7wpn1RSfVlJ9Cp6VC8K-86" value="&lt;font style=&quot;font-size: 24px;&quot;&gt;$$Object(L_2)$$&lt;/font&gt;" style="text;html=1;strokeColor=none;fillColor=none;align=center;verticalAlign=middle;whiteSpace=wrap;rounded=0;" parent="1" vertex="1">
          <mxGeometry x="660" y="900.7499999999999" width="100" height="30" as="geometry" />
        </mxCell>
        <mxCell id="G7wpn1RSfVlJ9Cp6VC8K-87" value="&lt;font style=&quot;font-size: 24px;&quot;&gt;$$Object(L_2)$$&lt;/font&gt;" style="text;html=1;strokeColor=none;fillColor=none;align=center;verticalAlign=middle;whiteSpace=wrap;rounded=0;" parent="1" vertex="1">
          <mxGeometry x="900" y="900.7499999999999" width="100" height="30" as="geometry" />
        </mxCell>
        <mxCell id="G7wpn1RSfVlJ9Cp6VC8K-88" value="&lt;font style=&quot;font-size: 24px;&quot;&gt;$$Object(L_2)$$&lt;/font&gt;" style="text;html=1;strokeColor=none;fillColor=none;align=center;verticalAlign=middle;whiteSpace=wrap;rounded=0;" parent="1" vertex="1">
          <mxGeometry x="1141.5" y="900.7499999999999" width="100" height="30" as="geometry" />
        </mxCell>
        <mxCell id="G7wpn1RSfVlJ9Cp6VC8K-89" value="" style="shape=flexArrow;endArrow=classic;html=1;rounded=0;fontFamily=Helvetica;fontSize=12;fontColor=default;fillColor=#fff2cc;strokeColor=#d6b656;endWidth=18.666666666666668;endSize=7.016666666666667;width=13;" parent="1" edge="1">
          <mxGeometry width="50" height="50" relative="1" as="geometry">
            <mxPoint x="333.5" y="1060" as="sourcePoint" />
            <mxPoint x="384.5" y="1110" as="targetPoint" />
          </mxGeometry>
        </mxCell>
        <mxCell id="G7wpn1RSfVlJ9Cp6VC8K-90" value="" style="shape=flexArrow;endArrow=classic;html=1;rounded=0;fontFamily=Helvetica;fontSize=12;fontColor=default;fillColor=#fff2cc;strokeColor=#d6b656;endWidth=18.666666666666668;endSize=7.016666666666667;width=13;" parent="1" edge="1">
          <mxGeometry width="50" height="50" relative="1" as="geometry">
            <mxPoint x="579" y="1060" as="sourcePoint" />
            <mxPoint x="531" y="1110" as="targetPoint" />
          </mxGeometry>
        </mxCell>
        <mxCell id="G7wpn1RSfVlJ9Cp6VC8K-91" value="&lt;font style=&quot;font-size: 24px;&quot;&gt;$$L_1$$&lt;/font&gt;" style="text;html=1;strokeColor=none;fillColor=none;align=center;verticalAlign=middle;whiteSpace=wrap;rounded=0;fontSize=12;fontFamily=Helvetica;fontColor=default;" parent="1" vertex="1">
          <mxGeometry x="-70" y="710" width="60" height="30" as="geometry" />
        </mxCell>
        <mxCell id="G7wpn1RSfVlJ9Cp6VC8K-92" value="&lt;font style=&quot;font-size: 24px;&quot;&gt;$$L_2$$&lt;/font&gt;" style="text;html=1;strokeColor=none;fillColor=none;align=center;verticalAlign=middle;whiteSpace=wrap;rounded=0;fontSize=12;fontFamily=Helvetica;fontColor=default;" parent="1" vertex="1">
          <mxGeometry x="929" y="710" width="60" height="30" as="geometry" />
        </mxCell>
        <mxCell id="G7wpn1RSfVlJ9Cp6VC8K-93" value="&lt;font style=&quot;font-size: 24px;&quot;&gt;$$L_1\cup L_2$$&lt;/font&gt;" style="text;html=1;strokeColor=none;fillColor=none;align=center;verticalAlign=middle;whiteSpace=wrap;rounded=0;fontSize=12;fontFamily=Helvetica;fontColor=default;" parent="1" vertex="1">
          <mxGeometry x="429" y="1100" width="60" height="30" as="geometry" />
        </mxCell>
        <mxCell id="G7wpn1RSfVlJ9Cp6VC8K-94" value="&lt;font style=&quot;font-size: 18px;&quot;&gt;$$Object(L_1)$$&lt;/font&gt;" style="text;html=1;strokeColor=none;fillColor=none;align=center;verticalAlign=middle;whiteSpace=wrap;rounded=0;" parent="1" vertex="1">
          <mxGeometry x="-41" y="1311.12" width="100" height="30" as="geometry" />
        </mxCell>
        <mxCell id="G7wpn1RSfVlJ9Cp6VC8K-96" value="&lt;font style=&quot;font-size: 18px;&quot;&gt;$$Object(L_1)$$&lt;/font&gt;" style="text;html=1;strokeColor=none;fillColor=none;align=center;verticalAlign=middle;whiteSpace=wrap;rounded=0;" parent="1" vertex="1">
          <mxGeometry x="530" y="1311.12" width="100" height="30" as="geometry" />
        </mxCell>
        <mxCell id="G7wpn1RSfVlJ9Cp6VC8K-97" value="&lt;font style=&quot;font-size: 18px;&quot;&gt;$$Object(L_2)$$&lt;/font&gt;" style="text;html=1;strokeColor=none;fillColor=none;align=center;verticalAlign=middle;whiteSpace=wrap;rounded=0;" parent="1" vertex="1">
          <mxGeometry x="660" y="1311.12" width="100" height="30" as="geometry" />
        </mxCell>
        <mxCell id="G7wpn1RSfVlJ9Cp6VC8K-100" value="" style="endArrow=classic;html=1;rounded=0;fontFamily=Helvetica;fontSize=12;fontColor=default;" parent="1" edge="1">
          <mxGeometry width="50" height="50" relative="1" as="geometry">
            <mxPoint x="318.29" y="1450" as="sourcePoint" />
            <mxPoint x="318.29" y="1360" as="targetPoint" />
          </mxGeometry>
        </mxCell>
        <mxCell id="G7wpn1RSfVlJ9Cp6VC8K-101" value="" style="endArrow=classic;html=1;rounded=0;fontFamily=Helvetica;fontSize=12;fontColor=default;" parent="1" edge="1">
          <mxGeometry width="50" height="50" relative="1" as="geometry">
            <mxPoint x="638.29" y="1450" as="sourcePoint" />
            <mxPoint x="638.29" y="1360" as="targetPoint" />
          </mxGeometry>
        </mxCell>
        <mxCell id="bYmc7-23tK-XrN8PW1tQ-2" value="&lt;font style=&quot;font-size: 18px;&quot;&gt;$$Object(L_1\cup L_2)= Object(L_2)&lt;br&gt;$$&lt;/font&gt;" style="text;html=1;strokeColor=none;fillColor=none;align=center;verticalAlign=middle;whiteSpace=wrap;rounded=0;" vertex="1" parent="1">
          <mxGeometry x="889" y="1450" width="100" height="30" as="geometry" />
        </mxCell>
      </root>
    </mxGraphModel>
  </diagram>
</mxfile>
